<?xml version="1.0" encoding="UTF-8" standalone="no"?>
<svg width="178px" height="156px" viewBox="0 0 178 156" version="1.1" xmlns="http://www.w3.org/2000/svg" xmlns:xlink="http://www.w3.org/1999/xlink">
    <!-- Generator: Sketch 40 (33762) - http://www.bohemiancoding.com/sketch -->
    <title>read</title>
    <desc>Created with Sketch.</desc>
    <defs>
        <polygon id="path-1" points="152.70315 90.9562126 152.70315 0.307016611 -6.82121026e-13 0.307016611 -6.82121026e-13 90.9562126"></polygon>
    </defs>
    <g id="弈慧HR系统" stroke="none" stroke-width="1" fill="none" fill-rule="evenodd" opacity="0.284981343">
        <g id="读周报详情页" transform="translate(-1030.000000, -151.000000)">
            <g id="read" transform="translate(1119.000943, 228.654156) rotate(30.000000) translate(-1119.000943, -228.654156) translate(1042.500943, 183.154156)">
                <g id="Group-6">
                    <mask id="mask-2" fill="white">
                        <use xlink:href="#path-1"></use>
                    </mask>
                    <g id="Clip-4"></g>
                    <path d="M1.67893355,9.37163123 C1.67842525,9.37264784 1.67842525,9.37366445 1.67842525,9.37468106 C1.67842525,9.37366445 1.67842525,9.37264784 1.67893355,9.37163123" id="Fill-3" fill="#9E2F37" mask="url(#mask-2)"></path>
                    <path d="M1.52695017,54.5371296 L1.52695017,53.9180133 C1.58743854,53.9876512 1.62098671,54.0959203 1.61641196,54.2590864 C1.61387043,54.3536312 1.58286379,54.4466512 1.52695017,54.5371296 L1.52695017,54.5371296 Z M151.461359,45.8054551 L151.461359,81.0503522 C151.461359,83.6167874 150.588598,85.9112791 149.224814,87.417897 L149.224814,87.4173887 C149.226339,87.5383654 149.206007,87.6349435 149.155684,87.6979734 C149.115528,87.7503289 149.061648,87.7742193 149.001159,87.7747276 C148.96812,87.7747276 148.933555,87.7655781 148.89899,87.7523621 C147.912877,88.6998439 146.710734,89.2589801 145.41303,89.2589801 L145.410997,89.2589801 C145.342375,89.3169269 145.262571,89.3784319 145.168027,89.4231628 C144.867618,89.5609136 145.169043,90.2359435 145.05315,90.2359435 C145.049083,90.2359435 145.044508,90.2359435 145.039425,90.2339103 C145.029767,90.2318771 145.021635,90.2293355 145.012993,90.2298439 C144.960638,90.2298439 144.922007,90.2852492 144.905233,90.3625116 C144.859485,90.3640365 144.813738,90.3640365 144.769007,90.3640365 C144.751724,90.3645449 144.734442,90.3640365 144.718176,90.3640365 L144.492488,90.3640365 C144.469106,90.338113 144.443691,90.318289 144.419292,90.3096478 C144.413701,90.3071063 144.40811,90.3071063 144.401502,90.3071063 C144.373037,90.3071063 144.344063,90.3279468 144.313056,90.3635282 L143.112439,90.3630199 L142.531445,90.3625116 C142.596,90.2715249 142.65903,90.1815548 142.721551,90.0951429 C142.939615,89.7921927 143.171402,89.5151661 143.377266,89.2589801 L142.486206,89.2589801 C142.417585,89.3225183 142.345914,89.3459003 142.274751,89.3459003 C142.207654,89.345392 142.139033,89.3260764 142.073462,89.3077774 C142.007382,89.2889701 141.941811,89.2696545 141.880814,89.2696545 C141.868615,89.2691462 141.856415,89.2691462 141.844216,89.2716877 C141.839133,89.2716877 141.833542,89.2727043 141.827442,89.272196 C141.808126,89.272196 141.788811,89.2666047 141.768987,89.2589801 L140.711203,89.2589801 C140.616658,89.3326844 140.531262,89.3845316 140.443326,89.3845316 C140.430618,89.3845316 140.418927,89.3840233 140.406219,89.3814817 C140.381312,89.376907 140.35488,89.3743654 140.331498,89.3748738 C140.140375,89.3743654 140.000083,89.5095748 140.009741,89.6554585 C140.015841,89.7372957 139.956877,89.792701 139.869449,89.792701 C139.778462,89.7921927 139.656468,89.731196 139.5421,89.5797209 C139.474495,89.4882259 139.431289,89.3763987 139.407399,89.2589801 L127.430701,89.2589801 C127.69197,89.3138771 127.921724,89.4033389 128.112847,89.4928007 C128.42088,89.6361429 128.626744,89.7789767 128.701465,89.7789767 C128.711123,89.7789767 128.719256,89.7774518 128.724339,89.7718605 C128.735522,89.7596611 128.750262,89.7545781 128.766528,89.7545781 C128.876831,89.7545781 129.084728,89.9970399 129.140133,90.3533621 L127.054555,90.3518372 L125.168233,90.3503123 C125.43001,89.860814 125.811748,89.395206 126.393757,89.2625382 C126.401382,89.2610133 126.408498,89.260505 126.416123,89.2589801 L117.721555,89.2589801 C117.665641,89.383515 117.631585,89.516691 117.606169,89.5939535 C117.554322,89.7550864 117.640226,90.1363156 117.820166,90.3254053 C117.826266,90.3320133 117.832874,90.3391296 117.838465,90.3452292 L115.678166,90.3437043 C115.699515,90.0260133 115.803718,89.749495 116.008056,89.6295349 C116.259159,89.4831429 116.510771,89.3697907 116.744083,89.2589801 L109.179987,89.2589801 C109.117973,89.3326844 109.05291,89.3616578 108.988864,89.3616578 C108.890252,89.3616578 108.794691,89.3011694 108.715395,89.2589801 L108.515123,89.2589801 C108.373814,89.3209934 108.189807,89.4623023 107.973269,89.5024585 C107.927522,89.5110997 107.883299,89.5151661 107.842126,89.5151661 C107.657611,89.5151661 107.528502,89.4272292 107.511219,89.2589801 L107.101525,89.2589801 C107.048661,89.3596246 106.978007,89.4592525 106.901761,89.5278738 C106.860588,89.5644718 106.81789,89.5822625 106.777734,89.5822625 C106.666924,89.5822625 106.571362,89.4541694 106.558146,89.2589801 L94.5209601,89.2589801 C94.4686047,89.3708073 94.4040498,89.4760266 94.3455947,89.5537973 C94.1758206,89.7779601 94.4152326,90.1520731 94.2495249,90.3035482 C94.2408837,90.3111728 94.2322425,90.319814 94.2251262,90.3289635 L92.2940731,90.3274385 C92.302206,90.318289 92.3118638,90.3101561 92.3220299,90.2989734 C92.4740133,90.1642724 92.3301628,89.9650166 92.1634385,89.9650166 C92.0851595,89.9650166 92.0033223,90.0082226 91.9428339,90.1215748 C91.8925116,90.2161196 91.8335482,90.2811827 91.768485,90.3269302 L90.2781329,90.3259136 C90.2735581,90.3193056 90.2669502,90.3126977 90.2618671,90.3060897 C90.0016146,90.012289 90.642588,89.6336013 91.4030133,89.6341096 L91.4472359,89.6341096 L91.46401,89.6341096 C91.7766179,89.6346179 92.0282292,89.4872093 92.2193522,89.3377674 C92.2539169,89.3113355 92.2854319,89.2849037 92.3159302,89.2589801 L88.4695814,89.2589801 C88.4411163,89.7240797 87.9297608,89.945701 87.3899402,90.0270299 C87.2720133,90.0443123 87.1586611,90.0509203 87.0509003,90.050412 C86.6035914,90.0499037 86.2376113,89.9314684 85.9768505,89.9070698 C85.6535681,89.8745382 85.3785748,89.5802292 85.5813887,89.3469169 C85.6047708,89.3199767 85.6230698,89.2899867 85.6383189,89.2589801 L84.5708771,89.2589801 C84.3746711,89.4129967 84.2379369,89.6554585 84.0996777,89.6554585 C84.0849369,89.6554585 84.0717209,89.6534252 84.0574884,89.6478339 C83.9675183,89.6127608 83.9177043,89.443495 83.953794,89.2589801 L81.793495,89.2589801 C81.7299568,89.3438671 81.5840731,89.4140133 81.3670266,89.413505 C81.3360199,89.413505 81.3029801,89.4140133 81.2673987,89.4094385 C81.0528937,89.3911395 80.9441163,89.3301429 80.9141262,89.2589801 L57.913804,89.2589801 C57.9066877,89.4267209 57.8817807,89.6610498 57.9229535,89.9131694 C57.955485,90.1119169 58.0210565,90.2760997 58.1089934,90.4016512 C57.9610764,90.4514651 57.6982824,90.5165282 57.3831329,90.5663422 C57.0791661,90.6136146 56.7569003,90.6527542 56.4534419,90.6522458 C56.119485,90.6527542 55.9268372,90.5846412 55.845,90.5083953 C55.9039635,90.484505 55.9669934,90.4606146 56.0335814,90.4372326 C56.5576445,90.2532259 57.025794,90.0875183 57.2774053,89.7820266 C57.4090565,89.6219103 57.4975017,89.4180797 57.5793389,89.2589801 L52.7799169,89.2589801 C52.9471495,89.2650797 53.1443721,89.3377674 53.298897,89.4826346 C53.501711,89.6778239 53.4935781,90.0194053 53.3898837,90.29999 L52.6294585,90.2994817 L52.6213256,90.3060897 C52.3747973,90.4931462 52.0840465,90.5820997 51.8146445,90.6339468 C51.8334518,90.5709169 51.8426013,90.5053455 51.8410764,90.4402824 C51.8359934,90.1810465 51.8278605,90.0199136 51.9371462,90.0204219 C51.9569701,90.0204219 51.9813688,90.0270299 52.0103422,90.037196 C52.0281329,90.0443123 52.0464319,90.0478704 52.0647309,90.0478704 C52.239588,90.0473621 52.430711,89.7683023 52.4363023,89.493309 C52.4393522,89.3494585 52.5577874,89.2706711 52.7163787,89.2589801 L49.2736246,89.2589801 C49.3259801,89.388598 49.2695581,89.5792126 49.1856877,89.8038837 C49.0860598,90.0682027 49.0418372,90.2161196 48.9472924,90.2969402 L48.7871761,90.2964319 C48.7993754,90.1637641 48.9203522,89.8328571 48.7795515,89.4445116 C48.7531196,89.370299 48.7348206,89.3103189 48.7226213,89.2589801 L38.3287874,89.2589801 C38.3003223,89.2925282 38.2698239,89.3235349 38.2372924,89.3489502 C38.0339701,89.5095748 38.188495,89.879113 38.0995415,90.2893156 L37.1139369,90.288299 C37.026,90.0981927 36.9451794,89.8186246 36.8003123,89.554814 C36.7454153,89.4536611 36.7220332,89.3540332 36.7205083,89.2589801 L36.4394153,89.2589801 C36.4018007,89.3682658 36.3164053,89.4312957 36.2411761,89.4312957 C36.2254186,89.4312957 36.2096611,89.4282458 36.1954286,89.4226545 C36.1151163,89.3896146 36.034804,89.3316678 35.9895648,89.2589801 L7.66626578,89.2589801 C4.44055814,89.2589801 1.79736877,85.8141927 1.62708638,81.4935947 C1.59099668,81.4885116 1.55439867,81.4834286 1.51627575,81.4783455 L1.51678405,80.4088704 C1.55236545,80.4083621 1.58540532,80.4007375 1.61793688,80.391588 L1.61793688,78.6008272 C1.58133887,78.5794784 1.54728239,78.5479635 1.51729236,78.5083156 L1.51780066,77.9405382 C1.54575748,77.9186811 1.57981395,77.9064817 1.61793688,77.8988571 L1.61793688,74.7432957 C1.54677409,74.6085947 1.55795681,74.4586445 1.61793688,74.351392 L1.61793688,62.1937375 C1.61437874,62.1937375 1.6113289,62.1947542 1.60777076,62.1947542 C1.60522924,62.1947542 1.60268771,62.1942458 1.60065449,62.1947542 C1.5747309,62.1947542 1.54880731,62.1927209 1.52390033,62.1901794 L1.52390033,61.3148771 C1.52949169,61.2670963 1.52949169,61.2193156 1.52440864,61.1745847 L1.52440864,60.8970498 L1.48171096,60.77099 C1.48171096,60.77099 1.33074419,60.496505 1.32362791,60.0110731 C1.37496678,60.0527542 1.41868106,60.0776611 1.45680399,60.0776611 C1.47103654,60.0776611 1.4847608,60.074103 1.49797674,60.0654618 C1.52288372,60.0512292 1.54982392,60.0436047 1.57879734,60.044113 C1.59150498,60.044113 1.60472093,60.0466545 1.61793688,60.049196 L1.61793688,52.0078007 C1.59607973,52.0708306 1.56710631,52.1343688 1.52593355,52.197907 C1.5213588,52.2055316 1.51678405,52.2131561 1.511701,52.2192558 C1.43952159,51.6936678 1.37750831,51.2748239 1.44053821,51.2702492 L1.46849502,51.2326346 C1.51780066,51.2682159 1.57778073,51.3536113 1.61793688,51.469505 L1.61793688,41.707495 C1.56812292,41.6790299 1.51881728,41.6434485 1.47408638,41.5992259 C1.46290365,41.3862458 1.44612957,41.095495 1.44816279,40.7620465 L1.44816279,40.7396811 C1.49492691,40.6868173 1.55338206,40.6456445 1.61793688,40.6120963 L1.61793688,16.8294917 C1.59455482,16.8472824 1.56913953,16.8620233 1.54118272,16.8726977 L1.54118272,16.0817741 C1.56761462,16.0726246 1.59252159,16.065 1.61793688,16.0568671 L1.61793688,10.6840764 L1.61742857,10.6840764 C1.59455482,10.6840764 1.57168106,10.6795017 1.5477907,10.6713688 C1.54931561,10.575299 1.55236545,10.4802458 1.55948173,10.3846844 C1.58184718,9.91907641 1.63674419,9.45550166 1.72061462,9.00209302 C1.72163123,9.00056811 1.72315615,9.0000598 1.72417276,8.99853488 C2.25230233,5.19895017 4.71504319,2.31482392 7.66626578,2.31482392 L111.382475,2.31482392 C111.405857,2.2772093 111.425173,2.23959468 111.436355,2.20147176 C111.544116,1.85531561 111.092233,1.47001993 111.438897,1.37496678 C111.516668,1.35361794 111.612738,1.34294352 111.716432,1.34294352 C112.078346,1.34294352 112.531754,1.47306977 112.594784,1.74298007 L112.597326,1.76077076 C112.605458,1.80092691 112.616133,1.83955814 112.627316,1.87920598 C112.533787,2.01848173 112.438734,2.16843189 112.342156,2.31482392 L139.058193,2.31482392 C139.143588,2.24569435 139.254399,2.20248837 139.383,2.20248837 C139.418581,2.20248837 139.455688,2.20604651 139.493811,2.21316279 C139.520751,2.21824585 139.547691,2.2233289 139.57514,2.22841196 C139.560399,2.25535216 139.544133,2.28432558 139.528375,2.31482392 L145.41303,2.31482392 C148.748023,2.31482392 151.461359,5.99699003 151.461359,10.5234518 L151.461359,44.9311694 C151.505073,44.9250698 151.548279,44.920495 151.58996,44.9199867 C151.594027,45.0358804 151.591485,45.1360166 151.579794,45.2163289 C151.542179,45.4684485 151.55692,45.6870199 151.591993,45.8949169 C151.552854,45.863402 151.508631,45.8329037 151.461359,45.8054551 L151.461359,45.8054551 Z M114.478565,90.3426877 C114.636648,90.2623754 114.881651,90.301515 115.067691,90.2074784 C115.096664,90.1922292 115.126146,90.1861296 115.151561,90.1856213 C115.230857,90.1861296 115.287787,90.2496678 115.301003,90.343196 L114.478565,90.3426877 L114.478565,90.3426877 Z M45.7683488,90.2943987 C45.6844784,90.0961595 45.7642824,89.9375681 45.9645548,89.9380764 C46.0331761,89.9380764 46.1155216,89.9563754 46.2105748,89.9980565 C46.3884817,90.0763355 46.5313156,90.1840963 46.6380598,90.2954153 L45.7683488,90.2943987 L45.7683488,90.2943987 Z M11.8257309,90.2694917 C11.9075681,90.1424153 12.0158372,90.0900598 12.1164817,90.0900598 C12.2323754,90.0905681 12.3375947,90.160206 12.3808007,90.27 L11.8257309,90.2694917 L11.8257309,90.2694917 Z M5.26960465,89.6193688 C5.27926246,89.6183522 5.28892027,89.6173355 5.29857807,89.6173355 C5.33060133,89.6173355 5.36516611,89.6285183 5.40328904,89.6544419 C5.43175415,89.6737575 5.4541196,89.6981561 5.4719103,89.7286545 C5.40379734,89.6951063 5.336701,89.6585083 5.26960465,89.6193688 L5.26960465,89.6193688 Z M146.539435,0.307016611 L6.16371429,0.307016611 C2.76518272,0.307016611 -6.82121026e-13,4.14777409 -6.82121026e-13,8.86840864 L-6.82121026e-13,82.4253189 C-6.82121026e-13,87.1464618 2.76518272,90.986711 6.16371429,90.986711 L146.539435,90.986711 C149.937967,90.986711 152.70315,87.1464618 152.70315,82.4253189 L152.70315,8.86840864 C152.70315,4.14777409 149.937967,0.307016611 146.539435,0.307016611 L146.539435,0.307016611 Z" id="Fill-5" stroke="#B3B3B3" stroke-width="6" fill="#B3B3B3" mask="url(#mask-2)"></path>
                </g>
                <path d="M24.7158538,41.79899 C23.8130985,45.3598583 23.3617276,48.6448355 23.3617276,51.6540199 C23.3617276,54.6632044 23.7127938,56.8573685 24.4149369,58.2365781 C25.1170799,59.6157876 26.3207357,60.7943672 28.0259402,61.7723522 C29.7311447,62.7503371 32.0381516,63.4650077 34.9470299,63.9163854 C37.8559082,64.3677631 40.9904284,64.5934485 44.3506844,64.5934485 C47.7109404,64.5934485 51.0460698,64.2298442 54.3561728,63.5026246 C57.6662757,62.775405 60.1613537,61.9353536 61.8414817,60.9824452 C63.5216097,60.0295368 64.7754178,58.825881 65.6029435,57.3714419 C66.4304693,55.9170027 67.2454445,53.635072 68.0478937,50.5255814 C68.4491183,49.0209892 68.7876465,48.2687043 69.0634884,48.2687043 C69.3393303,48.2687043 69.5023253,48.9708368 69.5524784,50.3751229 C69.6527846,53.5849197 70.1041555,56.7194399 70.9066047,59.7787774 C71.1072169,60.5812266 71.2075216,61.2081306 71.2075216,61.6595083 C71.2075216,62.9133352 70.1417847,64.1671432 68.0102791,65.4209701 C65.8787734,66.674797 62.6564867,67.7029196 58.3433223,68.5053688 C54.0301578,69.307818 49.240611,69.7090365 43.9745382,69.7090365 C38.7084654,69.7090365 34.1696802,69.0570564 30.3580465,67.7530764 C26.5464128,66.4490965 23.8632636,64.8692983 22.3085183,63.0136346 C20.753773,61.1579708 19.976412,58.3243646 19.976412,54.5127309 C19.976412,52.7573733 20.0892547,50.8766612 20.3149435,48.8705382 C20.5406324,46.8644152 20.6534751,44.958627 20.6534751,43.1531163 C20.6534751,38.4888803 20.2773327,35.4295887 19.5250365,33.9751495 C19.1238119,33.2228534 18.9232027,32.5959494 18.9232027,32.0944186 C18.9232027,31.5928879 19.2366547,31.3421262 19.8635681,31.3421262 C20.4904815,31.3421262 21.343071,31.5552736 22.4213621,31.9815748 C23.4996532,32.4078759 24.2770142,33.0723942 24.7534684,33.9751495 C25.2299226,34.8779048 25.4681462,35.8057228 25.4681462,36.7586312 C25.4681462,37.7115396 25.44307,38.4638245 25.3929169,39.0155083 C27.6999584,39.0656614 30.3705695,38.8650521 33.4048306,38.4136744 C36.4390916,37.9622967 38.6207176,37.5485401 39.9497741,37.172392 C41.2788306,36.796244 42.0812677,36.3950254 42.3571096,35.9687243 C42.6329515,35.5424231 43.172089,33.7996299 43.9745382,30.7402924 C44.7769874,27.6809548 45.178206,25.9256235 45.178206,25.4742458 C45.178206,24.5213374 44.7268351,24.0448904 43.8240797,24.0448904 C42.9213244,24.0448904 40.9026934,24.2831139 37.7681262,24.7595681 C34.6335591,25.2360223 32.4770092,25.6247028 31.298412,25.9256213 C30.1198147,26.2265397 28.8283924,26.3769967 27.4241063,26.3769967 C26.0198202,26.3769967 24.6406314,26.0008543 23.2864983,25.2485581 C21.9323653,24.496262 21.255309,23.9320484 21.255309,23.5559003 C21.255309,23.1797523 21.4433802,22.9540668 21.8195282,22.8788372 C22.1956763,22.8036076 22.9855754,22.7659934 24.1892492,22.7659934 C27.5495052,22.7659934 31.6369194,22.3898509 36.4516146,21.6375548 C41.2663098,20.8852587 44.2378349,20.0953596 45.3662791,19.2678339 C46.4947233,18.4403082 47.4476174,18.0265515 48.22499,18.0265515 C49.0023627,18.0265515 50.4191658,18.7036078 52.4754419,20.0577409 C54.5317179,21.4118739 55.5598405,22.4650727 55.5598405,23.2173688 C55.5598405,23.9696649 54.8953223,24.6216451 53.5662658,25.1733289 C52.2372093,25.7250127 50.8329443,27.1042016 49.3534286,29.3109369 C47.8739129,31.5176722 47.1341661,33.0974703 47.1341661,34.0503787 C47.1341661,35.0032872 47.4601562,35.7054197 48.1121462,36.1567973 C48.7641362,36.608175 49.0901262,37.0595459 49.0901262,37.5109236 C49.0901262,37.9623013 48.8017504,38.3509818 48.22499,38.6769767 C47.6482297,39.0029717 46.457112,39.2662714 44.6516013,39.4668837 L34.5708837,40.8962392 C29.6558824,41.5983822 26.3709053,41.8992962 24.7158538,41.79899 L24.7158538,41.79899 Z M93.4807493,13.9641728 C95.8880968,13.9641728 97.931804,14.4280817 99.611932,15.3559136 C101.29206,16.2837455 102.132111,17.7507009 102.132111,19.7568239 C102.132111,20.50912 101.94404,21.0984098 101.567892,21.524711 C101.191744,21.9510121 100.702759,22.1641595 100.100922,22.1641595 C98.9474013,22.1641595 97.3926793,21.0231941 95.4367094,18.7412292 C93.4807395,16.4592643 92.5027692,15.0173851 92.5027692,14.4155482 C92.5027692,14.1146297 92.8287593,13.9641728 93.4807493,13.9641728 L93.4807493,13.9641728 Z M136.135726,29.8375415 C136.135726,33.8999406 136.323797,39.6925338 136.699945,47.215495 C137.076093,54.7384562 137.264165,59.2521652 137.264165,60.7567575 C137.264165,65.8723711 136.587108,69.6964857 135.232975,72.2292159 C133.878842,74.7619462 132.775491,76.0282924 131.922889,76.0282924 C131.371205,76.0282924 130.794453,75.5267691 130.192616,74.5237076 C128.838483,72.066207 127.033,69.7090478 124.776111,67.4521595 C124.073968,66.8001695 123.722902,66.3613367 123.722902,66.1356478 C123.722902,65.909959 123.898435,65.7971163 124.249507,65.7971163 C124.600578,65.7971163 125.390477,65.9475732 126.619228,66.2484917 C127.847978,66.5494101 128.888639,66.6998671 129.741241,66.6998671 C130.593843,66.6998671 131.183133,66.4114913 131.509128,65.8347309 C131.835123,65.2579705 132.04827,63.8537055 132.148577,61.6218937 C132.248883,59.3900819 132.299035,54.5503828 132.299035,47.1026512 C132.299035,39.6549196 132.161116,33.5363362 131.885274,28.7467176 C131.609432,23.957099 131.283442,21.2614116 130.907294,20.6595748 C130.531146,20.0577379 129.628404,19.7568239 128.199042,19.7568239 C126.769679,19.7568239 125.0645,19.8571286 123.083454,20.0577409 C121.102407,20.2583532 119.184081,20.546729 117.328417,20.9228771 C115.472753,21.2990251 113.830265,21.4870963 112.400902,21.4870963 C110.971539,21.4870963 109.755346,21.2363347 108.752284,20.734804 C107.749223,20.2332732 107.247699,19.7568262 107.247699,19.3054485 C107.247699,18.8540708 107.874603,18.6283854 109.12843,18.6283854 C111.585931,18.6283854 115.209436,18.3023953 119.999055,17.6504053 C124.788674,16.9984153 127.609742,16.3965875 128.462344,15.8449037 C129.164487,15.4436791 129.92931,15.2430698 130.756836,15.2430698 C131.584361,15.2430698 133.038779,15.9326642 135.120131,17.3118738 C137.201484,18.6910833 138.242145,19.6815917 138.242145,20.2834286 C138.242145,20.8852655 137.840926,21.6626265 137.038477,22.6155349 C136.43664,23.4179841 136.135726,25.8252956 136.135726,29.8375415 L136.135726,29.8375415 Z M92.42754,26.9036013 C92.42754,27.2045198 92.277083,27.706043 91.9761645,28.408186 C91.5247869,29.5617068 91.2238729,33.172674 91.0734137,39.241196 C90.9229545,47.1653818 90.697269,53.6350314 90.3963506,58.6503389 C90.0954321,63.6656463 89.6816755,66.8127046 89.1550682,68.091608 C88.6284609,69.3705114 88.0767854,70.0099535 87.500025,70.0099535 C86.9232647,70.0099535 86.2838225,69.0194451 85.5816795,67.0383987 C84.8795365,65.0573522 84.5284702,63.5903968 84.5284702,62.6374884 C84.5284702,61.68458 84.6789272,60.7818382 84.9798456,59.9292359 C85.7321417,58.0735721 86.39666,54.95159 86.9734204,50.563196 C87.5501807,46.174802 87.8385566,41.2473363 87.8385566,35.7806512 C87.8385566,30.313966 87.3621095,26.7029988 86.4092011,24.9476412 C86.0581296,24.2956512 85.8825964,23.7063614 85.8825964,23.1797542 C85.8825964,22.6531469 86.1960485,22.3898472 86.8229619,22.3898472 C87.4498753,22.3898472 88.5406883,22.9415227 90.0954336,24.0448904 C91.650179,25.148258 92.42754,26.1011521 92.42754,26.9036013 L92.42754,26.9036013 Z M112.739434,45.936598 C113.792648,46.6888941 114.319248,47.5665598 114.319248,48.5696213 C114.319248,48.9206928 114.244019,49.2466829 114.09356,49.5476013 C113.491723,50.8014282 113.190809,52.2934598 113.190809,54.0237409 C113.190809,55.7540219 113.328728,56.8322969 113.60457,57.258598 C113.880412,57.6848991 114.394473,58.0234273 115.146769,58.2741927 C115.899065,58.5249581 117.115259,58.6503389 118.795387,58.6503389 C120.475515,58.6503389 121.741861,58.3118107 122.594464,57.6347442 C123.447066,56.9576777 124.349808,55.0393513 125.302716,51.8797076 C125.553481,51.0772584 125.841857,50.6760399 126.167852,50.6760399 C126.493847,50.6760399 126.681918,51.0521823 126.732072,51.8044784 C126.882531,54.4625914 127.08314,56.2429988 127.333905,57.1457542 C127.584671,58.0485095 127.710052,58.6754135 127.710052,59.026485 C127.710052,60.0295465 126.857462,60.8946741 125.152258,61.6218937 C123.447053,62.3491133 121.328117,62.7127176 118.795387,62.7127176 C116.262657,62.7127176 114.206412,62.1108897 112.62659,60.9072159 C111.046768,59.7035422 110.256869,57.9105966 110.256869,55.5283256 C110.256869,53.1460545 110.432402,50.9518904 110.783474,48.9457674 C110.833627,48.644849 110.858703,48.2561685 110.858703,47.7797143 C110.858703,47.3032601 110.758398,46.7641226 110.557786,46.1622857 C108.351051,46.362898 106.821405,46.5384311 105.968802,46.6888904 C106.721099,47.4913396 107.097241,48.0931674 107.097241,48.494392 C107.097241,48.8956166 106.90917,49.3595256 106.533022,49.8861329 C106.156874,50.4127402 105.392051,51.7292386 104.23853,53.8356678 C102.784091,56.5439338 100.803074,58.8384026 98.2954204,60.7191429 C95.7877666,62.5998832 93.9572069,63.5402392 92.8036861,63.5402392 C92.3523085,63.5402392 92.126623,63.3772442 92.126623,63.0512492 C92.126623,62.7252542 92.3523085,62.4118022 92.8036861,62.1108837 C95.9633298,60.0546077 98.3957175,57.6974485 100.100922,55.0393355 C101.806127,52.3812226 102.658716,49.9237588 102.658716,47.6668704 C102.107032,47.5665643 101.73089,47.0399649 101.530278,46.0870565 C100.527216,42.2252697 99.4990934,39.466892 98.4458788,37.8118405 C98.1951135,37.4106159 98.0697327,37.0846258 98.0697327,36.8338605 C98.0697327,36.5830951 98.3581085,36.4577143 98.9348689,36.4577143 C99.5116292,36.4577143 100.502138,36.6332474 101.906424,36.9843189 C104.363924,36.8840128 106.971845,36.6834035 109.730264,36.382485 C113.74251,32.0191676 115.748603,28.2075911 115.748603,24.9476412 C115.748603,24.2454982 116.011903,23.8944319 116.53851,23.8944319 C117.065117,23.8944319 118.130854,24.2329601 119.735753,24.9100266 C121.340651,25.5870931 122.143088,26.201459 122.143088,26.7531429 C122.143088,27.3048267 121.892327,27.6809691 121.390796,27.8815814 C120.337581,28.3831121 117.127833,31.1164137 111.761454,36.0815681 C113.81773,35.7304966 115.196919,35.3668922 115.899062,34.9907442 C116.601205,34.6145961 117.303337,34.4265249 118.00548,34.4265249 C118.707623,34.4265249 119.735746,34.8026673 121.089879,35.5549635 C122.444012,36.3072596 123.121068,36.9216255 123.121068,37.3980797 C123.121068,37.8745339 122.820154,38.3760572 122.218317,38.9026645 C121.61648,39.4292717 120.951962,40.1439423 120.224743,41.0466977 C119.497523,41.949453 119.133919,42.576357 119.133919,42.9274286 C119.133919,43.2785001 119.209147,43.5417998 119.359606,43.7173355 C119.510066,43.8928713 119.585294,44.1060187 119.585294,44.3567841 C119.585294,44.6075494 119.334533,44.8332349 118.833002,45.0338472 C118.331471,45.2344595 116.300302,45.5353734 112.739434,45.936598 L112.739434,45.936598 Z M104.163301,44.9586179 C106.319883,44.8583118 108.388666,44.6577025 110.369713,44.3567841 C112.350759,44.0558656 113.65472,43.6671851 114.281633,43.1907309 C114.908546,42.7142767 115.460222,41.9118395 115.936676,40.7833953 C116.41313,39.6549512 116.651354,38.8399759 116.651354,38.3384452 C116.651354,37.8369144 116.124755,37.5861528 115.07154,37.5861528 C112.313121,37.5861528 108.300935,38.0625999 103.034862,39.0155083 C103.185321,40.2693352 103.561464,42.2503519 104.163301,44.9586179 L104.163301,44.9586179 Z M101.078902,27.0540598 C102.382882,27.0540598 103.812223,27.3549737 105.366969,27.9568106 C106.921714,28.5586475 107.699075,29.5993082 107.699075,31.0788239 C107.699075,32.5583396 107.21009,33.2980864 106.232105,33.2980864 C105.25412,33.2980864 104.01285,32.4204207 102.508258,30.6650631 C101.003665,28.9097055 100.25138,27.8690448 100.25138,27.5430498 C100.25138,27.2170548 100.527218,27.0540598 101.078902,27.0540598 L101.078902,27.0540598 Z" id="已阅" stroke="#B3B3B3" stroke-width="2" fill="#B3B3B3"></path>
            </g>
        </g>
    </g>
</svg>