<?xml version="1.0" encoding="UTF-8" standalone="no"?>
<svg width="106px" height="123px" viewBox="0 0 106 123" version="1.1" xmlns="http://www.w3.org/2000/svg" xmlns:xlink="http://www.w3.org/1999/xlink">
    <!-- Generator: Sketch 40 (33762) - http://www.bohemiancoding.com/sketch -->
    <title>Shape</title>
    <desc>Created with Sketch.</desc>
    <defs></defs>
    <g id="弈慧HR系统" stroke="none" stroke-width="1" fill="none" fill-rule="evenodd" fill-opacity="0.1">
        <g id="已写周报提示" transform="translate(-476.000000, -258.000000)" fill="#333333">
            <path d="M537,380 L487,380 C480.781955,380 476,375.215686 476,369 L476,269 C476,262.784314 480.781955,258 487,258 L571,258 C577.218045,258 582,262.784314 582,269 L582,335 C582,336.941176 580.406015,338.535948 579,339 C577.218045,338.535948 575.62406,336.941176 576,335 L576,269 C575.62406,266.771242 573.233083,264.379085 571,264 L487,264 C484.766917,264.379085 482.37594,266.771242 482,269 L482,370 C482.37594,372.026144 484.766917,374.418301 487,374 L536,374 C537.368421,374.418301 538.962406,376.013072 539,378 C538.962406,379.202614 538.165414,380 537,380 L537,380 Z M539,347 L499,347 C497.586207,347 496,345.5 496,344 L496,344 C496,342.5 497.586207,341 499,341 L539,341 C540.413793,341 542,342.5 542,344 L542,344 C541.206897,345.5 540.413793,347 539,347 L539,347 Z M559,319 L498,319 C496.595238,319 495,317.5 495,316 L495,316 C495,314.5 496.595238,313 498,313 L559,313 C560.404762,313 562,314.5 562,316 L562,316 C562,317.5 560.404762,319 559,319 L559,319 Z M560,292 L499,292 C497.595238,292 496,290.5 496,289 L496,289 C496,287.5 497.595238,286 499,286 L560,286 C561.404762,286 563,287.5 563,289 L563,289 C563,290.5 561.404762,292 560,292 L560,292 Z M581,350 C579.61976,348.602564 577.239519,348.602564 576,350 L557,372 L549,364 C547.089809,362.115385 544.709568,362.115385 544,364 C543.122741,365.294872 542.329328,367.679487 544,368 L555,379 C556.61077,380.397436 558.99101,380.397436 560,379 L582,354 C582,353.371795 582,350.987179 581,350 L581,350 Z" id="Shape"></path>
        </g>
    </g>
</svg>